<svg
    aria-hidden="true"
    xmlns="http://www.w3.org/2000/svg"
    overflow="hidden">

    <defs>
        <symbol id="instagram">
            <g clip-path="url(#clip0_75273_603)">
                <path
                    d="M19.9804 5.88005C19.9336 4.81738 19.7617 4.0868 19.5156 3.45374C19.2616 2.78176 18.8709 2.18014 18.359 1.68002C17.8589 1.1721 17.2533 0.777435 16.5891 0.527447C15.9524 0.281274 15.2256 0.109427 14.163 0.0625732C13.0924 0.0117516 12.7525 0 10.0371 0C7.32173 0 6.98185 0.0117516 5.91521 0.0586052C4.85253 0.105459 4.12195 0.277459 3.48904 0.523479C2.81692 0.777435 2.2153 1.16814 1.71517 1.68002C1.20726 2.18014 0.812743 2.78573 0.562603 3.44992C0.31643 4.0868 0.144583 4.81341 0.0977294 5.87609C0.0469078 6.9467 0.0351562 7.28658 0.0351562 10.002C0.0351562 12.7173 0.0469078 13.0572 0.0937614 14.1239C0.140615 15.1865 0.312615 15.9171 0.558787 16.5502C0.812743 17.2221 1.20726 17.8238 1.71517 18.3239C2.2153 18.8318 2.82088 19.2265 3.48508 19.4765C4.12195 19.7226 4.84856 19.8945 5.91139 19.9413C6.97788 19.9883 7.31791 19.9999 10.0333 19.9999C12.7487 19.9999 13.0885 19.9883 14.1552 19.9413C15.2179 19.8945 15.9484 19.7226 16.5813 19.4765C17.9254 18.9568 18.9881 17.8941 19.5078 16.5502C19.7538 15.9133 19.9258 15.1865 19.9727 14.1239C20.0195 13.0572 20.0313 12.7173 20.0313 10.002C20.0313 7.28658 20.0273 6.9467 19.9804 5.88005ZM18.1794 14.0457C18.1364 15.0225 17.9723 15.5499 17.8356 15.9015C17.4995 16.7728 16.808 17.4643 15.9367 17.8004C15.5851 17.9372 15.0538 18.1012 14.0809 18.1441C13.026 18.1911 12.7096 18.2027 10.0411 18.2027C7.37255 18.2027 7.05221 18.1911 6.00113 18.1441C5.02438 18.1012 4.49693 17.9372 4.1453 17.8004C3.71171 17.6402 3.31704 17.3862 2.9967 17.0541C2.6646 16.7298 2.41065 16.3391 2.2504 15.9055C2.11365 15.5539 1.94959 15.0225 1.90671 14.0497C1.8597 12.9948 1.8481 12.6783 1.8481 10.0097C1.8481 7.34122 1.8597 7.02087 1.90671 5.96995C1.94959 4.99319 2.11365 4.46575 2.2504 4.11412C2.41065 3.68038 2.6646 3.28586 3.00067 2.96536C3.32483 2.63327 3.71553 2.37931 4.14927 2.21921C4.5009 2.08247 5.03231 1.9184 6.0051 1.87537C7.05999 1.82851 7.37652 1.81676 10.0449 1.81676C12.7174 1.81676 13.0337 1.82851 14.0848 1.87537C15.0616 1.9184 15.589 2.08247 15.9407 2.21921C16.3742 2.37931 16.7689 2.63327 17.0893 2.96536C17.4213 3.28967 17.6753 3.68038 17.8356 4.11412C17.9723 4.46575 18.1364 4.99701 18.1794 5.96995C18.2263 7.02484 18.238 7.34122 18.238 10.0097C18.238 12.6783 18.2263 12.9908 18.1794 14.0457Z"
                    fill="#none" />
                <path
                    d="M10.0371 4.8642C7.20074 4.8642 4.89941 7.16537 4.89941 10.0019C4.89941 12.8385 7.20074 15.1396 10.0371 15.1396C12.8737 15.1396 15.1749 12.8385 15.1749 10.0019C15.1749 7.16537 12.8737 4.8642 10.0371 4.8642ZM10.0371 13.3346C8.19702 13.3346 6.70442 11.8422 6.70442 10.0019C6.70442 8.16165 8.19702 6.66921 10.0371 6.66921C11.8774 6.66921 13.3698 8.16165 13.3698 10.0019C13.3698 11.8422 11.8774 13.3346 10.0371 13.3346V13.3346Z"
                    fill="#none" />
                <path
                    d="M16.5775 4.6611C16.5775 5.32346 16.0404 5.86052 15.3779 5.86052C14.7155 5.86052 14.1785 5.32346 14.1785 4.6611C14.1785 3.99858 14.7155 3.46167 15.3779 3.46167C16.0404 3.46167 16.5775 3.99858 16.5775 4.6611V4.6611Z"
                    fill="#none" />
            </g>
            <defs>
                <clipPath id="clip0_75273_603">
                    <rect width="20" height="20" fill="none" />
                </clipPath>
            </defs>
        </symbol>
        <symbol id="twitter">
            <g clip-path="url(#clip0_75273_569)">
                <path
                    d="M20 3.79875C19.2563 4.125 18.4637 4.34125 17.6375 4.44625C18.4875 3.93875 19.1363 3.14125 19.4412 2.18C18.6488 2.6525 17.7738 2.98625 16.8412 3.1725C16.0887 2.37125 15.0162 1.875 13.8462 1.875C11.5763 1.875 9.74875 3.7175 9.74875 5.97625C9.74875 6.30125 9.77625 6.61375 9.84375 6.91125C6.435 6.745 3.41875 5.11125 1.3925 2.6225C1.03875 3.23625 0.83125 3.93875 0.83125 4.695C0.83125 6.115 1.5625 7.37375 2.6525 8.1025C1.99375 8.09 1.3475 7.89875 0.8 7.5975C0.8 7.61 0.8 7.62625 0.8 7.6425C0.8 9.635 2.22125 11.29 4.085 11.6712C3.75125 11.7625 3.3875 11.8062 3.01 11.8062C2.7475 11.8062 2.4825 11.7913 2.23375 11.7362C2.765 13.36 4.2725 14.5538 6.065 14.5925C4.67 15.6838 2.89875 16.3412 0.98125 16.3412C0.645 16.3412 0.3225 16.3263 0 16.285C1.81625 17.4563 3.96875 18.125 6.29 18.125C13.835 18.125 17.96 11.875 17.96 6.4575C17.96 6.27625 17.9538 6.10125 17.945 5.9275C18.7588 5.35 19.4425 4.62875 20 3.79875Z"
                    fill="#none" />
            </g>
            <defs>
                <clipPath id="clip0_75273_569">
                    <rect width="20" height="20" fill="none" />
                </clipPath>
            </defs>
        </symbol>
        <symbol id="facebook">
            <g clip-path="url(#clip0_75273_565)">
                <path
                    d="M13.3309 3.32083H15.1567V0.140833C14.8417 0.0975 13.7584 0 12.4967 0C9.86422 0 8.06088 1.65583 8.06088 4.69917V7.5H5.15588V11.055H8.06088V20H11.6226V11.0558H14.4101L14.8526 7.50083H11.6217V5.05167C11.6226 4.02417 11.8992 3.32083 13.3309 3.32083Z"
                    fill="#none" />
            </g>
            <defs>
                <clipPath id="clip0_75273_565">
                    <rect width="20" height="20" fill="none" />
                </clipPath>
            </defs>
        </symbol>
        <symbol id="in">

            <g clip-path="url(#clip0_75273_559)">
                <path
                    d="M19.9951 20V19.9992H20.0001V12.6642C20.0001 9.07587 19.2276 6.31171 15.0326 6.31171C13.0159 6.31171 11.6626 7.41837 11.1101 8.46754H11.0517V6.64671H7.07422V19.9992H11.2159V13.3875C11.2159 11.6467 11.5459 9.96337 13.7017 9.96337C15.8259 9.96337 15.8576 11.95 15.8576 13.4992V20H19.9951Z"
                    fill="#none" />
                <path d="M0.329956 6.64746H4.47662V20H0.329956V6.64746Z" fill="#none" />
                <path
                    d="M2.40167 0C1.07583 0 0 1.07583 0 2.40167C0 3.7275 1.07583 4.82583 2.40167 4.82583C3.7275 4.82583 4.80333 3.7275 4.80333 2.40167C4.8025 1.07583 3.72667 0 2.40167 0V0Z"
                    fill="#none" />
            </g>
            <defs>
                <clipPath id="clip0_75273_559">
                    <rect width="20" height="20" fill="none" />
                </clipPath>
            </defs>

        </symbol>
        <symbol id="sobre">
            <path
                d="M14.5 0H1.50001C0.672854 0 0 0.672853 0 1.50001V10.5C0 11.3271 0.672854 12 1.50001 12H14.5C15.3271 12 16 11.3271 16 10.5V1.50001C16 0.672853 15.3271 0 14.5 0ZM14.5 0.999994C14.5679 0.999994 14.6325 1.01409 14.6916 1.0387L8 6.83838L1.30833 1.0387C1.36742 1.01412 1.43204 0.999994 1.49998 0.999994H14.5ZM14.5 11H1.50001C1.22414 11 0.999996 10.7759 0.999996 10.5V2.09521L7.67236 7.87792C7.76661 7.95944 7.8833 7.99999 8 7.99999C8.1167 7.99999 8.23339 7.95948 8.32764 7.87792L15 2.09521V10.5C15 10.7759 14.7759 11 14.5 11Z"
                fill="#none" />


        </symbol>
        <symbol id="telefono">
            <path
                d="M8.5 0H1.5C0.672848 0 0 0.672848 0 1.5V14.5C0 15.3272 0.672848 16 1.5 16H8.5C9.32715 16 10 15.3272 10 14.5V1.5C10 0.672848 9.32715 0 8.5 0ZM1.5 1H8.5C8.77588 1 9 1.22412 9 1.5V12H1V1.5C1 1.22412 1.22412 1 1.5 1ZM8.5 15H1.5C1.22412 15 1 14.7759 1 14.5V13H9V14.5C9 14.7759 8.77588 15 8.5 15Z"
                fill="#none" />
            <path
                d="M2.35355 13.7389C2.54882 13.9213 2.54882 14.2169 2.35355 14.3992C2.15828 14.5816 1.84172 14.5816 1.64645 14.3992C1.45118 14.2169 1.45118 13.9213 1.64645 13.7389C1.84172 13.5566 2.15828 13.5566 2.35355 13.7389Z"
                fill="#none" />


        </symbol>
        <symbol id="Group-1">
            <rect width="270" height="120" rx="4" fill="#F5F4FA" />
            <path
                d="M167.316 73.3385L148.847 54.7337L150.897 44.6373C151.426 44.8438 151.988 44.9517 152.556 44.9558H152.57C155.178 44.9866 157.317 42.8974 157.348 40.2893C157.379 37.6812 155.289 35.542 152.681 35.5111C150.073 35.4803 147.934 37.5695 147.903 40.1776C147.897 40.7357 147.989 41.2905 148.176 41.8163L137.326 43.1405L119.628 25.35C119.41 25.1285 119.114 25.0025 118.804 25C118.498 25.0016 118.204 25.1235 117.987 25.3395L114.679 28.6295C114.223 29.0851 114.223 29.8236 114.679 30.2792L116.459 32.0852C109.562 44.7681 111.802 60.4741 121.97 70.7228C122.064 70.8121 122.172 70.8843 122.29 70.9363C122.216 71.3311 122.178 71.7317 122.176 72.1333V85.6667H108.176C104.956 85.6705 102.346 88.28 102.342 91.5V93.8333C102.342 94.4776 102.865 95 103.509 95H157.176C157.82 95 158.342 94.4776 158.342 93.8333V91.5C158.338 88.28 155.729 85.6705 152.509 85.6667H138.509V79.6688C140.702 80.1288 142.937 80.3633 145.178 80.3688C150.555 80.363 155.846 79.0225 160.578 76.4675L162.367 78.2677C162.584 78.4892 162.881 78.6152 163.191 78.6177C163.497 78.6161 163.79 78.4941 164.008 78.2782L167.316 74.9882C167.772 74.5326 167.772 73.7941 167.316 73.3385ZM150.925 38.6348C151.838 37.726 153.316 37.7301 154.224 38.6437C155.133 39.5574 155.129 41.0348 154.215 41.9435C153.778 42.3785 153.186 42.6226 152.569 42.6225H152.562C151.274 42.6158 150.235 41.5658 150.241 40.2771C150.244 39.6602 150.492 39.0699 150.929 38.6348H150.925ZM148.178 46.301L146.869 52.7445L144.298 50.158L148.178 46.301ZM146.853 44.3282L142.653 48.5037L139.404 45.237L146.853 44.3282ZM152.509 88C154.442 88 156.009 89.567 156.009 91.5V92.6667H104.676V91.5C104.676 89.567 106.243 88 108.176 88H152.509ZM136.176 83.3333V85.6667H124.509V83.3333H136.176ZM124.509 81V72.1333C124.509 69.303 127.126 67 130.342 67C133.559 67 136.176 69.303 136.176 72.1333V81H124.509ZM138.509 77.29V72.1333C138.509 68.0162 134.846 64.6667 130.342 64.6667C127.431 64.622 124.708 66.1041 123.165 68.5738C114.289 59.2249 112.29 45.2875 118.181 33.8207L158.872 74.7455C152.589 77.9419 145.386 78.8418 138.509 77.29ZM163.204 75.7943L161.56 74.1412L118.792 31.1157L117.141 29.4613L118.792 27.8163L136.15 45.272C136.158 45.272 136.163 45.2872 136.171 45.293L164.859 74.1493L163.204 75.7943Z"
                fill="#212121" />
            <path
                d="M130.353 69.3333H130.342C128.409 69.3304 126.84 70.895 126.837 72.8281C126.834 74.7611 128.399 76.3304 130.332 76.3333H130.342C132.275 76.3362 133.845 74.7716 133.848 72.8386C133.85 70.9055 132.286 69.3362 130.353 69.3333ZM131.169 73.6605C130.95 73.8789 130.652 74.0012 130.342 74C129.698 73.9966 129.178 73.4716 129.182 72.8273C129.183 72.5189 129.307 72.2237 129.526 72.0062C129.743 71.7902 130.036 71.6683 130.342 71.6667C130.987 71.67 131.506 72.195 131.503 72.8393C131.501 73.1477 131.378 73.4429 131.159 73.6605H131.169Z"
                fill="#2196F3" />
        </symbol>
        <symbol id="Group-2">
            <rect width="270" height="120" rx="4" fill="#F5F4FA" />
            <g clip-path="url(#clip0_75273_444)" filter="url(#filter0_d_75273_444)">
                <path
                    d="M168.461 58.4715C168.458 39.9819 153.466 24.9963 134.975 25C116.486 25.0037 101.5 39.9963 101.504 58.4859C101.507 73.0502 110.925 85.9413 124.8 90.3713C124.932 90.413 125.07 90.4343 125.208 90.4338C125.472 90.4333 125.73 90.3628 125.957 90.2287C126.253 90.0541 126.473 89.7764 126.577 89.449L135.032 62.6521C137.343 62.6404 139.207 60.7568 139.194 58.4459C139.183 56.1345 137.3 54.2706 134.988 54.2824C134.367 54.285 133.753 54.4282 133.194 54.7011L122.025 43.5302C121.471 42.9951 120.588 43.0106 120.053 43.5644C119.53 44.1054 119.53 44.962 120.053 45.503L131.216 56.6792C130.36 58.4277 130.849 60.5383 132.39 61.7303L124.334 87.2647C108.414 81.4002 100.262 63.7405 106.126 47.8203C111.991 31.9 129.65 23.7482 145.571 29.6127C161.491 35.4771 169.643 53.1374 163.778 69.0571C160.913 76.8351 155.026 83.1252 147.455 86.4989L146.584 82.3989C146.425 81.6454 145.684 81.1636 144.931 81.3233C144.693 81.3741 144.473 81.4857 144.291 81.6475L135.898 89.1409C135.322 89.653 135.271 90.5347 135.783 91.1105C135.95 91.2974 136.164 91.4362 136.403 91.5126L147.119 94.9327C147.852 95.1682 148.638 94.765 148.873 94.0312C148.948 93.7994 148.96 93.5527 148.91 93.3145L148.055 89.2915C160.445 84.0678 168.49 71.918 168.461 58.4715ZM134.983 57.0766C135.753 57.0766 136.378 57.7014 136.378 58.4715C136.378 59.2422 135.753 59.8665 134.983 59.8665C134.212 59.8665 133.588 59.2422 133.588 58.4715C133.588 57.7014 134.212 57.0766 134.983 57.0766ZM139.577 89.5916L144.355 85.3298L145.674 91.543L139.577 89.5916Z"
                    fill="#212121" />
                <path
                    d="M133.588 31.9673V34.7572C133.588 35.5278 134.212 36.1522 134.983 36.1522C135.753 36.1522 136.378 35.5278 136.378 34.7572V31.9673C136.378 31.1972 135.753 30.5723 134.983 30.5723C134.212 30.5723 133.588 31.1972 133.588 31.9673Z"
                    fill="#2196F3" />
                <path
                    d="M108.479 57.0765C107.708 57.0765 107.084 57.7014 107.084 58.4715C107.084 59.2421 107.708 59.8665 108.479 59.8665H111.269C112.039 59.8665 112.664 59.2421 112.664 58.4715C112.664 57.7014 112.039 57.0765 111.269 57.0765H108.479Z"
                    fill="#2196F3" />
                <path
                    d="M161.487 59.8665C162.257 59.8665 162.881 59.2421 162.881 58.4715C162.881 57.7014 162.257 57.0765 161.487 57.0765H158.697C157.926 57.0765 157.302 57.7014 157.302 58.4715C157.302 59.2421 157.926 59.8665 158.697 59.8665H161.487Z"
                    fill="#2196F3" />
            </g>

        </symbol>
        <symbol id="Group-3">
            <rect width="270" height="120" rx="4" fill="#F5F4FA" />
            <g clip-path="url(#clip0_75273_454)">
                <path d="M132.65 57.7351H134.982V68.2296H132.65V57.7351Z" fill="#2196F3" />
                <path d="M141.978 62.3993H144.31V68.2296H141.978V62.3993Z" fill="#2196F3" />
                <path d="M123.321 65.8975H125.653V68.2296H123.321V65.8975Z" fill="#2196F3" />
                <path d="M116.325 64.7314H118.657V68.2295H116.325V64.7314Z" fill="#2196F3" />
                <path
                    d="M103.498 86.8865H159.469C161.401 86.8865 162.967 85.3202 162.967 83.3883V78.7241C162.967 76.7923 161.401 75.2259 159.469 75.2259H158.303V46.1469L164.926 39.8725C166.463 40.6303 168.324 40.1702 169.33 38.7816C170.337 37.3935 170.196 35.4821 168.997 34.2568C167.798 33.0316 165.89 32.8488 164.48 33.8241C163.07 34.8 162.569 36.6499 163.293 38.2037L158.303 42.9345V40.2443C158.303 38.3124 156.736 36.7461 154.805 36.7461H108.162C106.231 36.7461 104.664 38.3124 104.664 40.2443V75.2259H103.498C101.566 75.2259 100 76.7923 100 78.7241V83.3883C100 85.3202 101.566 86.8865 103.498 86.8865ZM166.465 35.58C167.109 35.58 167.631 36.1021 167.631 36.7461C167.631 37.39 167.109 37.9121 166.465 37.9121C165.821 37.9121 165.299 37.39 165.299 36.7461C165.299 36.1021 165.821 35.58 166.465 35.58ZM106.996 40.2443C106.996 39.6003 107.518 39.0782 108.162 39.0782H154.805C155.449 39.0782 155.971 39.6003 155.971 40.2443V45.1414L153.639 47.3573V42.5764C153.639 41.9324 153.116 41.4103 152.473 41.4103H110.495C109.851 41.4103 109.328 41.9324 109.328 42.5764V71.7278C109.328 72.3717 109.851 72.8938 110.495 72.8938H152.473C153.116 72.8938 153.639 72.3717 153.639 71.7278V50.5651L155.971 48.3554V75.2259H106.996V40.2443ZM117.491 55.403C115.913 55.3984 114.528 56.4495 114.108 57.9703C113.689 59.491 114.338 61.104 115.695 61.9091C117.051 62.7142 118.779 62.5121 119.913 61.4149L123.966 63.4487C124.437 63.6844 125.008 63.5739 125.358 63.1805L133.974 53.4871L142.444 59.8338C142.899 60.1743 143.533 60.1378 143.945 59.7478L151.306 52.7748V70.5617H111.661V43.7424H151.306V49.5619L143.056 57.3747L134.515 50.9716C134.03 50.6084 133.348 50.6767 132.944 51.1294L124.21 60.9571L120.945 59.3242C120.969 59.1841 120.983 59.0429 120.989 58.9012C120.989 56.9693 119.423 55.403 117.491 55.403ZM118.657 58.9012C118.657 59.5451 118.135 60.0672 117.491 60.0672C116.847 60.0672 116.325 59.5451 116.325 58.9012C116.325 58.2572 116.847 57.7351 117.491 57.7351C118.135 57.7351 118.657 58.2572 118.657 58.9012ZM125.653 77.5581H137.314V78.7241C137.314 79.3681 136.792 79.8902 136.148 79.8902H126.819C126.175 79.8902 125.653 79.3681 125.653 78.7241V77.5581ZM102.332 78.7241C102.332 78.0802 102.854 77.5581 103.498 77.5581H123.321V78.7241C123.321 80.656 124.887 82.2223 126.819 82.2223H136.148C138.08 82.2223 139.646 80.656 139.646 78.7241V77.5581H159.469C160.113 77.5581 160.635 78.0802 160.635 78.7241V83.3883C160.635 84.0323 160.113 84.5544 159.469 84.5544H103.498C102.854 84.5544 102.332 84.0323 102.332 83.3883V78.7241Z"
                    fill="#212121" />
            </g>
            <defs>
                <clipPath id="clip0_75273_454">
                    <rect width="70" height="70" fill="white" transform="translate(100 25)" />
                </clipPath>
            </defs>
        </symbol>
        <symbol id="Group-4">
            <rect width="270" height="120" rx="4" fill="#F5F4FA" />
            <path
                d="M169.943 34.8964C169.806 34.4751 169.442 34.1672 169.002 34.103L164.823 33.4951L162.953 29.7081C162.561 28.91 161.253 28.91 160.861 29.7081L158.991 33.4951L154.811 34.1031C154.372 34.1672 154.008 34.4742 153.869 34.8965C153.732 35.3188 153.845 35.7831 154.164 36.0924L157.189 39.0407L156.475 43.2034C156.401 43.6409 156.58 44.0831 156.938 44.3445C157.301 44.6082 157.775 44.6407 158.168 44.4331L161.906 42.4672L165.644 44.4331C165.815 44.5229 166.002 44.5672 166.188 44.5672C166.429 44.5672 166.671 44.4925 166.874 44.3443C167.233 44.0831 167.413 43.6408 167.337 43.2033L166.623 39.0405L169.648 36.0923C169.965 35.7819 170.08 35.3187 169.943 34.8964ZM164.556 37.7991C164.282 38.0662 164.155 38.4536 164.221 38.8316L164.638 41.2688L162.45 40.1184C162.28 40.0286 162.093 39.9843 161.906 39.9843C161.72 39.9843 161.534 40.0286 161.362 40.1184L159.174 41.2688L159.591 38.8316C159.657 38.4536 159.531 38.0675 159.256 37.7991L157.484 36.0724L159.932 35.7166C160.312 35.6617 160.64 35.4226 160.811 35.0783L161.905 32.8617L162.999 35.0783C163.17 35.4225 163.497 35.6617 163.878 35.7166L166.325 36.0724L164.556 37.7991Z"
                fill="#2196F3" />
            <path d="M157.167 69.8923H154.834V72.2257H157.167V69.8923Z" fill="#2196F3" />
            <path d="M157.167 74.5591H154.834V76.8925H157.167V74.5591Z" fill="#2196F3" />
            <path d="M159.5 72.2257H157.167V74.5591H159.5V72.2257Z" fill="#2196F3" />
            <path d="M154.834 72.2257H152.5V74.5591H154.834V72.2257Z" fill="#2196F3" />
            <path d="M149 82.7259H146.667V85.0593H149V82.7259Z" fill="#2196F3" />
            <path d="M149 87.3926H146.667V89.726H149V87.3926Z" fill="#2196F3" />
            <path d="M151.334 85.0593H149V87.3927H151.334V85.0593Z" fill="#2196F3" />
            <path d="M146.667 85.0593H144.333V87.3927H146.667V85.0593Z" fill="#2196F3" />
            <path d="M135 78.0592H132.667V80.3926H135V78.0592Z" fill="#2196F3" />
            <path d="M135 82.7259H132.667V85.0593H135V82.7259Z" fill="#2196F3" />
            <path d="M137.333 80.3925H135V82.7259H137.333V80.3925Z" fill="#2196F3" />
            <path d="M132.667 80.3925H130.333V82.7259H132.667V80.3925Z" fill="#2196F3" />
            <path d="M112.833 38.3918H110.5V40.7252H112.833V38.3918Z" fill="#2196F3" />
            <path d="M112.833 43.0587H110.5V45.3921H112.833V43.0587Z" fill="#2196F3" />
            <path d="M115.166 40.7252H112.833V43.0586H115.166V40.7252Z" fill="#2196F3" />
            <path d="M110.5 40.7252H108.166V43.0586H110.5V40.7252Z" fill="#2196F3" />
            <path
                d="M154.064 55.9738C153.435 55.1256 152.512 54.5797 151.464 54.4326C150.412 54.2833 149.373 54.5597 148.533 55.2026L145.795 57.3014L145.794 57.3026L141.643 60.4025L138.672 59.2194C143.969 56.8429 147.671 51.545 147.671 45.3942C147.671 37.0314 140.84 30.2274 132.444 30.2274C124.047 30.2274 117.216 37.0314 117.216 45.3942C117.216 48.4253 118.123 51.2439 119.666 53.6158L113.62 53.5633C113.617 53.5633 113.613 53.5633 113.61 53.5633C113.591 53.5633 113.576 53.5726 113.559 53.5738C113.443 53.5785 113.33 53.6018 113.219 53.6415C113.191 53.652 113.162 53.6579 113.135 53.6706C113.121 53.6765 113.107 53.6776 113.093 53.6846L106.021 57.1764C106.02 57.1764 106.018 57.1764 106.018 57.1775L101.877 59.1693C101.831 59.1891 101.784 59.2159 101.739 59.2462C100.088 60.3452 99.5257 62.5036 100.43 64.2676C100.912 65.2056 101.732 65.8963 102.74 66.2124C103.129 66.3337 103.525 66.3933 103.919 66.3933C104.553 66.3933 105.181 66.2381 105.756 65.9313L108.792 64.3167L113.744 61.7593L116.712 61.7418L104.808 73.5884C104.807 73.5896 104.806 73.5896 104.805 73.5907L101.876 76.5074C101.185 77.1958 100.804 78.1092 100.804 79.0835C100.804 80.0565 101.185 80.9723 101.876 81.6619C102.587 82.3689 103.521 82.7235 104.456 82.7235C105.392 82.7235 106.325 82.3689 107.038 81.6619L109.913 78.7988L113.721 75.9556L115.691 77.9179L111.838 81.7551C111.836 81.7564 111.835 81.7564 111.834 81.7575L108.906 84.6741C108.214 85.3625 107.833 86.2759 107.833 87.2502C107.833 88.2233 108.214 89.139 108.906 89.8286C109.616 90.5356 110.552 90.8903 111.486 90.8903C112.421 90.8903 113.357 90.5356 114.068 89.8286L116.998 86.912L121.684 82.2453C121.685 82.244 121.685 82.2429 121.687 82.2417L123.895 80.0542L123.887 80.046C123.901 80.032 123.921 80.0272 123.935 80.0122L135.235 67.6349L142.828 68.7152C142.883 68.7234 142.938 68.7269 142.993 68.7269C143.134 68.7269 143.27 68.6931 143.402 68.6429C143.441 68.629 143.474 68.6102 143.511 68.5916C143.553 68.5706 143.597 68.559 143.637 68.5322L150.666 63.8655C150.692 63.848 150.706 63.8199 150.73 63.8013C150.758 63.7792 150.793 63.7699 150.819 63.7453L153.6 61.1401C155.047 59.7841 155.247 57.5628 154.064 55.9738ZM104.66 63.8722C104.281 64.0752 103.851 64.1159 103.439 63.9854C103.03 63.8582 102.699 63.5793 102.505 63.2025C102.153 62.5164 102.357 61.6811 102.974 61.2296L105.848 59.8471L106.54 61.8689L106.83 62.7182L104.66 63.8722ZM112.31 59.874L108.923 61.6241L108.365 59.9907L107.963 58.8169L112.397 56.6282L112.31 59.874ZM145.34 45.3919C145.34 47.4009 144.861 49.2957 144.03 50.9907L134.883 46.8362C134.788 45.5821 134.137 44.4842 133.159 43.8005L136.361 33.1685C141.563 34.823 145.34 39.6752 145.34 45.3919ZM119.552 45.3919C119.552 38.3159 125.336 32.5583 132.446 32.5583C132.999 32.5583 133.54 32.6049 134.076 32.6726L130.943 43.0713C130.901 43.0701 130.862 43.0585 130.819 43.0585C128.56 43.0585 126.722 44.8901 126.722 47.1419C126.722 49.3936 128.56 51.2254 130.819 51.2254C132.337 51.2254 133.65 50.3866 134.358 49.1591L142.807 52.9975C140.456 56.1615 136.694 58.2255 132.446 58.2255C125.336 58.2255 119.552 52.4679 119.552 45.3919ZM132.581 47.1419C132.581 48.1068 131.79 48.8919 130.819 48.8919C129.847 48.8919 129.056 48.1068 129.056 47.1419C129.056 46.1771 129.847 45.3919 130.819 45.3919C131.79 45.3919 132.581 46.1771 132.581 47.1419ZM105.392 80.0074C104.875 80.5196 104.038 80.5185 103.523 80.0087C103.274 79.7601 103.138 79.4324 103.138 79.0835C103.138 78.7358 103.274 78.4079 103.523 78.1618L105.627 76.0652L107.489 77.9191L105.392 80.0074ZM112.422 88.1743C111.905 88.6865 111.068 88.6877 110.552 88.1755C110.303 87.927 110.167 87.5993 110.167 87.2503C110.167 86.9027 110.303 86.5748 110.552 86.3287L112.658 84.231L113.539 85.1073L114.521 86.0849L112.422 88.1743ZM120.038 80.5862C120.037 80.5873 120.036 80.5873 120.035 80.5885L116.174 84.4385L115.293 83.5623L114.311 82.5846L118.168 78.7451C118.168 78.7451 118.168 78.7451 118.168 78.744C118.169 78.7428 118.17 78.7428 118.172 78.7417C118.259 78.6542 118.314 78.5492 118.368 78.4454C118.383 78.415 118.412 78.3893 118.425 78.3579C118.461 78.2681 118.467 78.1713 118.481 78.0767C118.488 78.0229 118.511 77.9729 118.511 77.9179C118.511 77.8397 118.483 77.764 118.467 77.6869C118.453 77.6169 118.453 77.5456 118.426 77.4781C118.382 77.3684 118.306 77.2716 118.227 77.177C118.204 77.1513 118.196 77.1186 118.172 77.0942C118.172 77.0942 118.172 77.0942 118.17 77.0942C118.169 77.0931 118.169 77.0906 118.168 77.0895L114.653 73.5895C114.616 73.5521 114.568 73.537 114.526 73.5055C114.464 73.4577 114.404 73.4134 114.336 73.3795C114.269 73.3468 114.201 73.327 114.131 73.3082C114.057 73.2872 113.984 73.2709 113.906 73.265C113.835 73.2604 113.769 73.2674 113.697 73.2756C113.619 73.2849 113.546 73.2954 113.47 73.3199C113.396 73.3432 113.331 73.3793 113.264 73.4179C113.22 73.4424 113.171 73.4506 113.131 73.4809L109.251 76.3767L107.281 74.4143L112.529 69.1946L122.067 78.576L120.038 80.5862ZM134.954 65.2372C134.921 65.2325 134.889 65.2454 134.855 65.2431C134.77 65.2384 134.689 65.2443 134.603 65.2582C134.537 65.2699 134.474 65.2827 134.411 65.3049C134.336 65.3306 134.269 65.3656 134.2 65.4075C134.134 65.4472 134.075 65.4892 134.018 65.5417C133.99 65.5661 133.956 65.5779 133.93 65.6058L123.653 76.862L114.185 67.5506L120.382 61.3859C120.839 60.9309 120.841 60.1923 120.386 59.735C120.156 59.5052 119.854 59.392 119.552 59.3932V59.3921L114.698 59.4212L114.759 55.9049L121.549 55.9633C124.317 58.7937 128.176 60.5589 132.446 60.5589C133.403 60.5589 134.336 60.4598 135.245 60.2905C135.332 60.3605 135.419 60.4317 135.528 60.476L140.8 62.5761L141.133 64.235L141.523 66.1717L134.954 65.2372ZM143.794 65.6269L143.11 62.2189L146.274 59.8564L147.102 60.9554L148.344 62.605L143.794 65.6269ZM152.005 59.4341L150.173 61.1514L148.136 58.4471L149.954 57.0529C150.294 56.7917 150.722 56.6854 151.142 56.7403C151.564 56.7997 151.938 57.0203 152.192 57.3621C152.666 58.0003 152.585 58.8905 152.005 59.4341Z"
                fill="#212121" />
            <path
                d="M129.755 65.5651L125.067 60.8984C124.613 60.4446 123.876 60.4446 123.421 60.8984L118.734 65.5651C118.515 65.7856 118.391 66.0819 118.391 66.3922C118.391 66.7026 118.513 67.0001 118.734 67.2194L123.421 71.8861C123.648 72.1124 123.947 72.2256 124.244 72.2256C124.542 72.2256 124.84 72.1124 125.067 71.8861L129.755 67.2194C129.974 67.0001 130.099 66.7026 130.099 66.3922C130.099 66.0819 129.975 65.7844 129.755 65.5651ZM124.244 69.4128L121.211 66.3922L124.244 63.3717L127.279 66.3922L124.244 69.4128Z"
                fill="#212121" />
            <path
                d="M137.547 36.0923L136.983 38.358C137.138 38.3966 140.784 39.3462 140.784 43.0586H143.118C143.118 38.6461 139.474 36.5718 137.547 36.0923Z"
                fill="#212121" />
            <path d="M143.118 45.3919H140.784V47.7253H143.118V45.3919Z" fill="#212121" />


        </symbol>
        <symbol id="cliente1">
            <g clip-path="url(#clip0_75273_668)">
                <path fill-rule="none" clip-rule="evenodd"
                    d="M38 7.08698L45.0078 13.7211L32 13.7134V45.9007H66V33.594L73 40.2208V7.08698H38ZM65.6924 32.8153L45.8226 14.0049H65.6924V32.8153ZM59.5231 41.1925H37.3801V19.5449H38.9453V39.7267H59.5231V41.1925ZM42.6089 50.1861L41.791 51.8707L40.9731 50.1861H40.2871L41.481 52.4322V53.7408H42.1011V52.4322L43.2925 50.1861H42.6089ZM43.6367 53.7408L43.9248 52.9131H45.3018L45.5923 53.7408H46.2368L44.8916 50.1861H44.3374L42.9946 53.7408H43.6367ZM44.6133 50.9405L45.1284 52.4151H44.0981L44.6133 50.9405ZM47.8701 52.3297C47.7806 52.4664 47.7358 52.6169 47.7358 52.7813C47.7358 53.0808 47.8408 53.3241 48.0508 53.5113C48.2624 53.6968 48.5439 53.7896 48.8955 53.7896C49.2471 53.7896 49.5498 53.6944 49.8037 53.504L50.0039 53.7408H50.6924L50.1699 53.1231C50.375 52.8432 50.4775 52.4843 50.4775 52.0464H49.9624C49.9624 52.2857 49.9128 52.503 49.8135 52.6983L49.1274 51.8878L49.3691 51.712C49.54 51.5883 49.6629 51.4646 49.7378 51.3409C49.8127 51.2156 49.8501 51.0788 49.8501 50.9307C49.8501 50.7061 49.7671 50.5181 49.6011 50.3668C49.4367 50.2138 49.2251 50.1373 48.9663 50.1373C48.6798 50.1373 48.452 50.2186 48.2827 50.3814C48.1134 50.5425 48.0288 50.7623 48.0288 51.0406C48.0288 51.1545 48.0557 51.2725 48.1094 51.3946C48.1647 51.5167 48.2616 51.6648 48.3999 51.8389C48.1362 52.0277 47.9596 52.1913 47.8701 52.3297ZM49.4741 53.1158C49.3 53.2492 49.1128 53.316 48.9126 53.316C48.7352 53.316 48.5936 53.2647 48.4878 53.1622C48.382 53.0596 48.3291 52.9262 48.3291 52.7618C48.3291 52.5714 48.4268 52.4021 48.6221 52.254L48.6978 52.2003L49.4741 53.1158ZM48.8369 51.5411C48.6693 51.3344 48.5854 51.1627 48.5854 51.0259C48.5854 50.9071 48.6196 50.8087 48.688 50.7305C48.7563 50.6524 48.8483 50.6133 48.9639 50.6133C49.0713 50.6133 49.16 50.6467 49.23 50.7134C49.3 50.7785 49.335 50.8575 49.335 50.9503C49.335 51.0902 49.2845 51.205 49.1836 51.2945L49.1079 51.3555L48.8369 51.5411ZM54.623 53.4722C54.8672 53.259 55.0072 52.9628 55.043 52.5836H54.4277C54.3952 52.8375 54.3179 53.0189 54.1958 53.128C54.0737 53.237 53.8914 53.2916 53.6489 53.2916C53.3836 53.2916 53.1818 53.1907 53.0435 52.9888C52.9067 52.787 52.8384 52.494 52.8384 52.1099V51.795C52.8416 51.4158 52.9149 51.1285 53.0581 50.9332C53.203 50.7362 53.4097 50.6378 53.6782 50.6378C53.9093 50.6378 54.0843 50.6947 54.2031 50.8087C54.3236 50.921 54.3984 51.1049 54.4277 51.3604H55.043C55.0039 50.9714 54.8647 50.6703 54.6255 50.4571C54.3862 50.2439 54.0705 50.1373 53.6782 50.1373C53.3869 50.1373 53.1297 50.2064 52.9067 50.3448C52.6854 50.4831 52.5153 50.6801 52.3965 50.9356C52.2777 51.1911 52.2183 51.4866 52.2183 51.8218V52.1539C52.2231 52.481 52.2842 52.7683 52.4014 53.0157C52.5186 53.2631 52.6846 53.4543 52.8994 53.5894C53.1159 53.7229 53.3657 53.7896 53.6489 53.7896C54.0542 53.7896 54.3789 53.6838 54.623 53.4722ZM58.2534 52.9742C58.3739 52.7105 58.4341 52.4045 58.4341 52.0562V51.8585C58.4325 51.5118 58.3706 51.2082 58.2485 50.9478C58.1265 50.6858 57.9531 50.4856 57.7285 50.3472C57.5055 50.2073 57.2492 50.1373 56.9595 50.1373C56.6698 50.1373 56.4126 50.2081 56.188 50.3497C55.965 50.4896 55.7917 50.6923 55.668 50.9576C55.5459 51.2229 55.4849 51.5289 55.4849 51.8755V52.0757C55.4865 52.4159 55.5483 52.7162 55.6704 52.9766C55.7941 53.237 55.9683 53.438 56.1929 53.5797C56.4191 53.7196 56.6763 53.7896 56.9644 53.7896C57.2557 53.7896 57.5129 53.7196 57.7358 53.5797C57.9604 53.438 58.133 53.2362 58.2534 52.9742ZM57.5918 50.9649C57.7415 51.1749 57.8164 51.4768 57.8164 51.8707V52.0562C57.8164 52.4566 57.7423 52.761 57.5942 52.9693C57.4478 53.1776 57.2378 53.2818 56.9644 53.2818C56.6942 53.2818 56.4826 53.1752 56.3296 52.962C56.1782 52.7488 56.1025 52.4468 56.1025 52.0562V51.8511C56.1058 51.4686 56.1823 51.1732 56.332 50.9649C56.4834 50.7549 56.6925 50.65 56.9595 50.65C57.2329 50.65 57.4437 50.7549 57.5918 50.9649Z"
                    fill="#none" />
            </g>
            <defs>
                <clipPath id="clip0_75273_668">
                    <rect width="106" height="52.8261" fill="none"
                        transform="translate(0 0.0869751)" />
                </clipPath>
            </defs>
        </symbol>
        <symbol id="cliente2">
            <g clip-path="url(#clip0_75273_676)">
                <path fill-rule="none" clip-rule="evenodd"
                    d="M50.1136 6.0215H49.977C49.7671 6.00878 49.5571 6.0037 49.3471 5.99861H49.3471H49.3269H48.8918C48.4946 5.99861 48.0898 6.00878 47.6876 6.02912C47.6573 6.02692 47.6269 6.02692 47.5966 6.02912C43.9522 6.23561 40.3817 7.14649 37.0805 8.7119L36.6479 8.92042V31.0616L37.6598 30.7183C38.5477 30.4131 39.4938 30.1385 40.4728 29.8842C43.1193 29.2048 45.8367 28.8437 48.568 28.8085V31.7176C48.2062 31.7202 47.8546 31.7303 47.503 31.7481H47.4195C45.3175 31.8634 43.2317 32.1837 41.1913 32.7043C38.6072 33.3512 36.1143 34.3226 33.7716 35.5956V7.19886C36.2047 5.77973 38.8253 4.71385 41.5556 4.03294C43.9527 3.41403 46.4169 3.09628 48.8918 3.08698H49.3193C49.8303 3.09969 50.3287 3.12258 50.7967 3.15818C52.0297 3.24475 53.2528 3.4396 54.4521 3.7405V6.60382C53.2874 6.33248 52.1032 6.15393 50.9105 6.06981C50.8863 6.06777 50.8621 6.0657 50.8379 6.06363C50.5911 6.04258 50.344 6.0215 50.1136 6.0215ZM55.1528 8.94836C55.7877 8.99667 56.4455 9.01956 57.1108 9.01956C59.7125 9.01005 62.3031 8.67781 64.8239 8.03037C67.4068 7.38094 69.8986 6.40875 72.2411 5.13654V33.0272C69.8067 34.4455 67.1853 35.5113 64.4546 36.1931C62.0571 36.8097 59.5931 37.1265 57.1184 37.1365C55.2433 37.1517 53.3737 36.9313 51.553 36.4805V8.40926C51.983 8.50844 52.4257 8.59998 52.876 8.67627C53.6147 8.80087 54.3939 8.89242 55.1528 8.94836ZM69.3471 9.16451L68.3352 9.50526C67.4042 9.81804 66.4657 10.0978 65.5221 10.347C62.7749 11.0529 59.9514 11.4151 57.1158 11.4252C56.4556 11.4252 55.8485 11.4074 55.2616 11.3692L54.4546 11.3158V31.4048V34.0927L55.1477 34.1537C55.7903 34.2096 56.4531 34.2376 57.1209 34.2376C59.3544 34.2281 61.5781 33.9403 63.7412 33.3806C65.5223 32.9339 67.2552 32.3112 68.9145 31.5218L69.3471 31.3133V9.16451Z"
                    fill="#none" />
                <path
                    d="M35.7371 45.2994C35.5917 45.1485 35.4163 45.0301 35.2224 44.9516C35.0284 44.8732 34.8203 44.8366 34.6114 44.8442C34.3888 44.8413 34.1678 44.8828 33.9613 44.9663C33.7719 45.0417 33.5998 45.1551 33.4553 45.2994C33.3125 45.4442 33.2013 45.6175 33.129 45.808C33.0497 46.0077 33.0101 46.2211 33.0126 46.4361V50.2301C33.0036 50.4975 33.0546 50.7634 33.1619 51.0083C33.2514 51.2027 33.3807 51.376 33.5413 51.5168C33.693 51.6445 33.871 51.7366 34.0625 51.7864C34.2469 51.8382 34.4376 51.8648 34.6291 51.8652C34.8404 51.8673 35.0495 51.8222 35.2413 51.733C35.4309 51.65 35.6028 51.5308 35.7473 51.3821C35.8881 51.2347 36.0005 51.0622 36.0786 50.8735C36.1597 50.6822 36.201 50.4762 36.2001 50.2683V49.8436H35.2084V50.1818C35.2114 50.2973 35.1916 50.4122 35.1502 50.52C35.1179 50.6008 35.0688 50.6736 35.006 50.7336C34.9446 50.7833 34.8742 50.8204 34.7986 50.843C34.7316 50.8653 34.6617 50.8773 34.5912 50.8786C34.5026 50.8889 34.413 50.8755 34.3312 50.8398C34.2495 50.804 34.1786 50.7473 34.1257 50.6751C34.0322 50.5227 33.9864 50.3455 33.9942 50.1666V46.6294C33.988 46.4332 34.0297 46.2385 34.1156 46.0623C34.1671 45.9822 34.2399 45.9183 34.3258 45.8778C34.4117 45.8374 34.5071 45.822 34.6013 45.8334C34.6868 45.8304 34.7717 45.8482 34.8488 45.8854C34.9259 45.9226 34.9929 45.9781 35.044 46.047C35.155 46.1927 35.213 46.3722 35.2084 46.5556V46.8837H36.19V46.4971C36.1919 46.2701 36.1507 46.0449 36.0685 45.8334C35.9953 45.6347 35.8825 45.453 35.7371 45.2994Z"
                    fill="#none" />
                <path
                    d="M41.6289 45.2561C41.3127 44.9891 40.9136 44.8416 40.5007 44.8391C40.2987 44.84 40.0984 44.8761 39.9087 44.9459C39.7161 45.0149 39.5384 45.1202 39.3851 45.2561C39.2208 45.4038 39.0897 45.585 39.0005 45.7876C38.9006 46.0194 38.8515 46.27 38.8563 46.5225V50.1614C38.8495 50.4174 38.8987 50.6718 39.0005 50.9065C39.0903 51.1022 39.2215 51.2758 39.3851 51.4151C39.5367 51.5558 39.7147 51.6648 39.9087 51.7355C40.0984 51.8053 40.2987 51.8414 40.5007 51.8423C40.7027 51.8419 40.9031 51.8058 41.0926 51.7355C41.29 51.6638 41.4719 51.5551 41.6289 51.4151C41.7871 51.2732 41.9145 51.1 42.0033 50.9065C42.1051 50.6718 42.1544 50.4174 42.1475 50.1614V46.5225C42.1524 46.27 42.1032 46.0194 42.0033 45.7876C41.9151 45.5871 41.7878 45.4064 41.6289 45.2561ZM41.166 50.1614C41.1743 50.2584 41.1609 50.356 41.1268 50.4471C41.0926 50.5382 41.0386 50.6205 40.9687 50.6878C40.8377 50.7977 40.6725 50.8578 40.5019 50.8578C40.3313 50.8578 40.1662 50.7977 40.0352 50.6878C39.9652 50.6205 39.9112 50.5382 39.8771 50.4471C39.8429 50.356 39.8295 50.2584 39.8379 50.1614V46.5225C39.8295 46.4255 39.8429 46.3279 39.8771 46.2368C39.9112 46.1457 39.9652 46.0635 40.0352 45.9961C40.1662 45.8863 40.3313 45.8261 40.5019 45.8261C40.6725 45.8261 40.8377 45.8863 40.9687 45.9961C41.0386 46.0635 41.0926 46.1457 41.1268 46.2368C41.1609 46.3279 41.1743 46.4255 41.166 46.5225V50.1614Z"
                    fill="#none" />
                <path
                    d="M49.3673 51.7864V44.8977H48.4136L47.1614 48.5442H47.1437L45.8813 44.8977H44.9377V51.7864H45.9218V47.5957H45.9395L46.9033 50.5582H47.3941L48.3655 47.5957H48.3832V51.7864H49.3673Z"
                    fill="#none" />
                <path
                    d="M54.9581 45.3807C54.8065 45.2107 54.6153 45.0814 54.4015 45.0043C54.1712 44.9294 53.9302 44.8933 53.6881 44.8975H52.226V51.7863H53.2075V49.0959H53.7134C54.0197 49.1098 54.3244 49.0451 54.5988 48.9077C54.822 48.7838 55.0081 48.602 55.1377 48.3813C55.2512 48.1981 55.3277 47.9942 55.3628 47.7812C55.4014 47.522 55.4192 47.2601 55.4159 46.998C55.4255 46.6672 55.3932 46.3365 55.3198 46.0139C55.2543 45.7755 55.1299 45.5577 54.9581 45.3807ZM54.4521 47.4812C54.4479 47.6059 54.4168 47.7282 54.361 47.8397C54.3049 47.9456 54.2162 48.0304 54.1081 48.0813C53.9627 48.1463 53.8041 48.1759 53.6451 48.1677H53.1974V45.8257H53.7033C53.8557 45.8182 54.0075 45.8479 54.146 45.9122C54.2475 45.9704 54.3281 46.0594 54.3762 46.1665C54.4299 46.2875 54.4591 46.418 54.4622 46.5504C54.4622 46.6954 54.4622 46.848 54.4622 47.0082C54.4622 47.1684 54.4723 47.3337 54.4622 47.4812H54.4521Z"
                    fill="#none" />
                <path
                    d="M59.6077 44.8977H58.8032L57.2854 51.7864H58.2669L58.5553 50.3065H59.8935L60.1819 51.7864H61.1635L59.6077 44.8977ZM58.702 49.3681L59.1852 46.871H59.2029L59.6836 49.3681H58.702Z"
                    fill="#none" />
                <path
                    d="M65.9497 49.0477H65.932L64.4496 44.8977H63.506V51.7864H64.4875V47.644H64.5078L66.0079 51.7864H66.9312V44.8977H65.9497V49.0477Z"
                    fill="#none" />
                <path
                    d="M71.9476 44.8977L71.1583 47.6364H71.1381L70.3488 44.8977H69.3091L70.6574 48.8748V51.7864H71.639V48.8748L72.9873 44.8977H71.9476Z"
                    fill="#none" />
            </g>
            <defs>
                <clipPath id="clip0_75273_676">
                    <rect width="106" height="52.8261" fill="none"
                        transform="translate(0 0.0869751)" />
                </clipPath>
            </defs>
        </symbol>
        <symbol id="cliente3">
            <path
                d="M36.4063 49.1885C36.4222 49.1888 36.4379 49.192 36.4524 49.1977C36.4669 49.2034 36.4799 49.2115 36.4908 49.2216L36.7089 49.4301C36.5396 49.5989 36.3304 49.7338 36.0955 49.8258C35.8204 49.9261 35.5239 49.9746 35.2257 49.9679C34.9455 49.973 34.6671 49.9278 34.4078 49.8353C34.1739 49.7503 33.9638 49.6226 33.7916 49.4609C33.6159 49.2932 33.4805 49.0967 33.3935 48.8828C33.2982 48.6445 33.2512 48.3936 33.2545 48.1413C33.2506 47.8873 33.3015 47.635 33.4044 47.3973C33.4997 47.1821 33.6433 46.9856 33.827 46.8192C34.0132 46.6561 34.2359 46.5279 34.4814 46.4425C34.7499 46.3521 35.0359 46.307 35.3239 46.3098C35.5914 46.3042 35.8575 46.3453 36.1064 46.4307C36.3223 46.5121 36.5206 46.6251 36.6926 46.7647L36.5099 46.9874C36.4973 47.0031 36.4816 47.0168 36.4635 47.0277C36.442 47.0406 36.4159 47.0464 36.3899 47.0443C36.3616 47.0426 36.3343 47.0344 36.3109 47.0206L36.2127 46.9614L36.0764 46.8856C36.0175 46.8574 35.9565 46.8329 35.8937 46.8121C35.8128 46.787 35.7299 46.7672 35.6456 46.7529C35.5386 46.7358 35.4299 46.7278 35.3211 46.7292C35.1138 46.7269 34.908 46.7608 34.7159 46.8287C34.5367 46.8916 34.375 46.9869 34.2415 47.1083C34.1055 47.2373 34.0007 47.3888 33.9334 47.5537C33.8566 47.7423 33.8187 47.9412 33.8216 48.1413C33.8183 48.3444 33.8561 48.5465 33.9334 48.7383C33.9999 48.9018 34.1027 49.0523 34.236 49.1814C34.3609 49.3017 34.5157 49.3956 34.6886 49.4562C34.8666 49.5203 35.0576 49.5525 35.2503 49.551C35.3615 49.5524 35.4728 49.5461 35.5829 49.532C35.7627 49.5129 35.9351 49.4587 36.0873 49.3733C36.1636 49.3295 36.2356 49.2804 36.3027 49.2264C36.3307 49.2031 36.3676 49.1896 36.4063 49.1885Z"
                fill="#none" />
            <path
                d="M42.7044 48.1408C42.7078 48.3922 42.6579 48.642 42.5572 48.8776C42.4684 49.0914 42.3284 49.2863 42.1465 49.4497C41.9646 49.613 41.745 49.741 41.5021 49.8252C40.9683 50.0022 40.3782 50.0022 39.8444 49.8252C39.603 49.7397 39.3848 49.6114 39.2037 49.4486C39.0219 49.2822 38.8809 49.0856 38.7893 48.8705C38.5929 48.3933 38.5929 47.8718 38.7893 47.3946C38.8823 47.1794 39.0231 46.9822 39.2037 46.8142C39.3864 46.6564 39.6045 46.533 39.8444 46.4517C40.3775 46.2716 40.969 46.2716 41.5021 46.4517C41.7443 46.5372 41.9634 46.6655 42.1455 46.8284C42.325 46.9931 42.465 47.1872 42.5572 47.3993C42.6582 47.6366 42.7081 47.8879 42.7044 48.1408ZM42.1319 48.1408C42.1362 47.9398 42.1011 47.7395 42.0283 47.5486C41.9672 47.385 41.8679 47.2342 41.7366 47.1056C41.6087 46.9839 41.4513 46.8884 41.2758 46.826C40.8879 46.6965 40.4586 46.6965 40.0707 46.826C39.8952 46.8884 39.7378 46.9839 39.6099 47.1056C39.4768 47.2335 39.3764 47.3845 39.3155 47.5486C39.1768 47.9342 39.1768 48.3475 39.3155 48.7331C39.377 48.897 39.4773 49.0479 39.6099 49.1761C39.7379 49.2971 39.8953 49.3918 40.0707 49.4533C40.4593 49.5795 40.8872 49.5795 41.2758 49.4533C41.4512 49.3918 41.6086 49.2971 41.7366 49.1761C41.8673 49.0471 41.9665 48.8964 42.0283 48.7331C42.1015 48.5423 42.1365 48.342 42.1319 48.1408Z"
                fill="#none" />
            <path
                d="M47.0013 48.7617L47.0586 48.8944C47.0804 48.847 47.0995 48.8044 47.1213 48.7617C47.1421 48.7172 47.1657 48.6737 47.1922 48.6315L48.5854 46.4309C48.6127 46.393 48.6372 46.3693 48.6645 46.3622C48.7015 46.3524 48.7403 46.3484 48.779 46.3503H49.1907V49.9295H48.7026V47.2978C48.7026 47.2647 48.7026 47.2268 48.7026 47.1865C48.7 47.1455 48.7 47.1044 48.7026 47.0633L47.3012 49.2947C47.2834 49.3281 47.255 49.3564 47.2192 49.3761C47.1834 49.3959 47.1418 49.4063 47.0995 49.406H47.0204C46.9779 49.4066 46.9362 49.3963 46.9004 49.3765C46.8646 49.3568 46.8362 49.3283 46.8186 49.2947L45.3763 47.0491C45.3763 47.0918 45.3763 47.1344 45.3763 47.177C45.3763 47.2197 45.3763 47.2576 45.3763 47.2907V49.9224H44.9047V46.3503H45.3164C45.355 46.3484 45.3938 46.3524 45.4309 46.3622C45.4647 46.3767 45.4916 46.401 45.5072 46.4309L46.9304 48.6338C46.9584 48.6745 46.9821 48.7174 47.0013 48.7617Z"
                fill="#none" />
            <path
                d="M52.2443 48.5839V49.9246H51.699V46.3502H52.915C53.1446 46.3464 53.3735 46.3727 53.5939 46.4284C53.7704 46.4718 53.9341 46.5478 54.0738 46.651C54.1949 46.7478 54.2883 46.8679 54.3464 47.0016C54.4108 47.1474 54.4423 47.3026 54.4391 47.4588C54.4415 47.6155 54.4072 47.7711 54.3383 47.9159C54.2727 48.0531 54.172 48.1754 54.0438 48.2736C53.9039 48.3812 53.7395 48.4619 53.5612 48.5105C53.3489 48.5694 53.1269 48.5974 52.9041 48.5934L52.2443 48.5839ZM52.2443 48.2002H52.9041C53.0475 48.2018 53.1901 48.1834 53.3267 48.1457C53.4394 48.1127 53.5433 48.0604 53.6321 47.9917C53.714 47.9262 53.7775 47.8451 53.8175 47.7549C53.8621 47.6594 53.8844 47.5571 53.8829 47.454C53.8893 47.3547 53.8706 47.2553 53.8282 47.1628C53.7859 47.0704 53.7208 46.9871 53.6376 46.9187C53.4293 46.7774 53.1676 46.709 52.9041 46.7268H52.2443V48.2002Z"
                fill="#none" />
            <path
                d="M59.5731 49.9294H59.1423C59.0991 49.9309 59.0566 49.9191 59.0223 49.8963C58.9914 49.874 58.9671 49.8455 58.9514 49.8133L58.5806 48.9487H56.7185L56.334 49.8133C56.3199 49.845 56.2964 49.8727 56.2659 49.8939C56.2312 49.9181 56.1877 49.9308 56.1432 49.9294H55.7124L57.3483 46.3499H57.9154L59.5731 49.9294ZM56.8739 48.6004H58.4116L57.7627 47.1435C57.7131 47.0339 57.6721 46.9215 57.64 46.8071L57.5773 46.9942C57.5582 47.0511 57.5364 47.1032 57.5173 47.1458L56.8739 48.6004Z"
                fill="#none" />
            <path
                d="M61.9288 46.3665C61.9614 46.382 61.9894 46.4039 62.0106 46.4305L64.3962 49.1287C64.3962 49.0861 64.3962 49.0435 64.3962 49.0032C64.3962 48.9629 64.3962 48.9226 64.3962 48.8847V46.3499H64.8843V49.9294H64.6116C64.5729 49.9305 64.5345 49.9231 64.4998 49.9081C64.4662 49.8911 64.4365 49.8685 64.4126 49.8418L62.0297 47.1459C62.0323 47.1869 62.0323 47.2281 62.0297 47.2691C62.0297 47.3094 62.0297 47.3449 62.0297 47.3781V49.9294H61.5416V46.3499H61.8306C61.8644 46.3491 61.8979 46.3548 61.9288 46.3665Z"
                fill="#none" />
            <path
                d="M68.9031 48.5058V49.9272H68.3578V48.5058L66.85 46.3501H67.3381C67.3801 46.3479 67.4217 46.3588 67.4553 46.3809C67.485 46.4039 67.5099 46.4311 67.5289 46.4614L68.4723 47.852C68.5105 47.9112 68.5432 47.9657 68.5705 48.0178C68.5977 48.07 68.6195 48.1197 68.6386 48.1695L68.7095 48.0155C68.736 47.9592 68.7669 47.9045 68.8022 47.852L69.7319 46.452C69.7515 46.424 69.7753 46.3985 69.8028 46.3761C69.8352 46.3516 69.8772 46.3389 69.9201 46.3406H70.4136L68.9031 48.5058Z"
                fill="#none" />
            <path
                d="M46.7314 40.3431C46.9686 40.3692 47.2086 40.3905 47.4512 40.4094C51.1301 38.9796 54.2422 36.6393 56.3987 33.6812C58.5552 30.723 59.6603 27.2782 59.5759 23.7774L55.5216 20.2548C56.346 23.9821 55.9604 27.8352 54.408 31.3829C52.8555 34.9306 50.1976 38.0331 46.7314 40.3431Z"
                fill="#none" />
            <path
                d="M45.2837 40.1793L45.3928 40.1982C49.0966 37.8964 51.9205 34.682 53.4993 30.9708C55.078 27.2597 55.3389 23.2223 54.2483 19.3809L48.4737 14.3637C50.8094 18.4877 51.7495 23.1031 51.1848 27.6731C50.6201 32.2432 48.5737 36.58 45.2837 40.1793Z"
                fill="#none" />
            <path
                d="M64.8679 27.9136C63.8868 31.7602 61.5041 35.2293 58.0735 37.8059C57.0716 38.5626 55.9909 39.2366 54.8454 39.8194C57.6389 39.1061 60.2065 37.8448 62.3502 36.133C64.494 34.4212 66.1566 32.3044 67.21 29.9461L64.8679 27.9136Z"
                fill="#none" />
            <path
                d="M63.9491 27.3472L60.6146 24.45C60.5509 27.7531 59.4701 30.9811 57.4846 33.7985C55.4991 36.6158 52.6814 38.9198 49.3243 40.4708H49.3406C50.0888 40.4706 50.8362 40.4318 51.5791 40.3547C54.7165 39.2421 57.488 37.472 59.6465 35.2023C61.8049 32.9326 63.2831 30.234 63.9491 27.3472Z"
                fill="#none" />
            <path
                d="M45.7663 12.2479L41.7883 8.78699C38.2322 9.98094 35.1738 12.0799 33.0134 14.8091C30.8529 17.5383 29.6912 20.7706 29.6801 24.0829V24.0829C29.6934 27.743 31.1113 31.2947 33.7093 34.1758C36.3073 37.057 39.9371 39.103 44.0241 39.9901C47.6725 36.128 49.8086 31.3558 50.1219 26.3668C50.4352 21.3778 48.9094 16.432 45.7663 12.2479Z"
                fill="#none" />
            <path
                d="M73.1401 26.8144C73.1257 22.4719 71.1339 18.3108 67.5997 15.2402C64.0656 12.1696 59.2764 10.439 54.2784 10.4265C51.9688 10.4244 49.6789 10.7947 47.5249 11.5186L71.8805 32.6797C72.7144 30.8091 73.1415 28.8203 73.1401 26.8144Z"
                fill="#none" />

        </symbol>
        <symbol id="cliente4">
            <path
                d="M24.1462 21.1899H24.1433C21.7453 21.1899 19.8013 22.9175 19.8013 25.0485V25.0511C19.8013 27.1822 21.7453 28.9098 24.1433 28.9098H24.1462C26.5442 28.9098 28.4882 27.1822 28.4882 25.0511V25.0485C28.4882 22.9175 26.5442 21.1899 24.1462 21.1899Z"
                fill="#none" />
            <path
                d="M56.195 19.9563C56.1882 16.9963 54.8623 14.1593 52.5074 12.066C50.1525 9.97271 46.9604 8.79371 43.6297 8.78699V8.78699C40.298 8.79236 37.1045 9.97078 34.7484 12.0642C32.3922 14.1576 31.0655 16.9955 31.0587 19.9563V36.2792C31.0587 36.2792 56.1922 33.7914 56.195 19.9589V19.9563Z"
                fill="#none" />
            <path
                d="M11 41.6365C11.006 43.6961 11.9291 45.6698 13.5676 47.1264C15.2061 48.583 17.4267 49.404 19.7442 49.4101C22.0612 49.4041 24.2814 48.5834 25.9197 47.1273C27.5581 45.6713 28.4816 43.6982 28.4884 41.639V30.2814C28.4884 30.2814 11 32.0136 11 41.6365ZM19.7442 43.6715C19.2913 43.6715 18.8486 43.5521 18.472 43.3285C18.0955 43.1049 17.802 42.7871 17.6287 42.4153C17.4554 42.0434 17.41 41.6342 17.4984 41.2395C17.5867 40.8448 17.8048 40.4822 18.125 40.1976C18.4453 39.913 18.8533 39.7192 19.2975 39.6406C19.7416 39.5621 20.202 39.6024 20.6205 39.7564C21.0389 39.9105 21.3965 40.1713 21.6481 40.5059C21.8997 40.8406 22.034 41.234 22.034 41.6365C22.0351 41.9044 21.9767 42.1698 21.8622 42.4176C21.7476 42.6654 21.5791 42.8906 21.3664 43.0804C21.1536 43.2702 20.9008 43.4207 20.6224 43.5235C20.3441 43.6262 20.0456 43.6791 19.7442 43.6791V43.6715Z"
                fill="#none" />
            <path
                d="M35.7302 40.0283V44.2939H34.8513V40.0283H35.7302ZM37.4294 41.8506V42.5361H35.4899V41.8506H37.4294ZM37.6345 40.0283V40.7168H35.4899V40.0283H37.6345ZM41.6481 42.0615V42.2637C41.6481 42.5879 41.6042 42.8789 41.5163 43.1367C41.4284 43.3945 41.3044 43.6143 41.1442 43.7959C40.9841 43.9756 40.7927 44.1133 40.57 44.209C40.3493 44.3047 40.1042 44.3525 39.8347 44.3525C39.5671 44.3525 39.322 44.3047 39.0993 44.209C38.8786 44.1133 38.6872 43.9756 38.5251 43.7959C38.363 43.6143 38.237 43.3945 38.1472 43.1367C38.0593 42.8789 38.0153 42.5879 38.0153 42.2637V42.0615C38.0153 41.7354 38.0593 41.4443 38.1472 41.1885C38.235 40.9307 38.3591 40.7109 38.5192 40.5293C38.6813 40.3477 38.8727 40.209 39.0934 40.1133C39.3161 40.0176 39.5612 39.9697 39.8288 39.9697C40.0983 39.9697 40.3434 40.0176 40.5641 40.1133C40.7868 40.209 40.9782 40.3477 41.1384 40.5293C41.3005 40.7109 41.4255 40.9307 41.5134 41.1885C41.6032 41.4443 41.6481 41.7354 41.6481 42.0615ZM40.7604 42.2637V42.0557C40.7604 41.8291 40.7399 41.6299 40.6989 41.458C40.6579 41.2861 40.5974 41.1416 40.5173 41.0244C40.4372 40.9072 40.3395 40.8193 40.2243 40.7607C40.1091 40.7002 39.9772 40.6699 39.8288 40.6699C39.6804 40.6699 39.5485 40.7002 39.4333 40.7607C39.32 40.8193 39.2233 40.9072 39.1432 41.0244C39.0651 41.1416 39.0056 41.2861 38.9645 41.458C38.9235 41.6299 38.903 41.8291 38.903 42.0557V42.2637C38.903 42.4883 38.9235 42.6875 38.9645 42.8613C39.0056 43.0332 39.0661 43.1787 39.1462 43.2979C39.2263 43.415 39.3239 43.5039 39.4391 43.5645C39.5544 43.625 39.6862 43.6553 39.8347 43.6553C39.9831 43.6553 40.1149 43.625 40.2302 43.5645C40.3454 43.5039 40.4421 43.415 40.5202 43.2979C40.5983 43.1787 40.6579 43.0332 40.6989 42.8613C40.7399 42.6875 40.7604 42.4883 40.7604 42.2637ZM44.5016 43.1777C44.5016 43.1016 44.4899 43.0332 44.4665 42.9727C44.445 42.9102 44.404 42.8535 44.3434 42.8027C44.2829 42.75 44.1979 42.6982 44.0886 42.6475C43.9792 42.5967 43.8376 42.5439 43.6638 42.4893C43.4704 42.4268 43.2868 42.3564 43.113 42.2783C42.9411 42.2002 42.7888 42.1094 42.6559 42.0059C42.5251 41.9004 42.4216 41.7783 42.3454 41.6396C42.2712 41.501 42.2341 41.3398 42.2341 41.1562C42.2341 40.9785 42.2731 40.8174 42.3513 40.6729C42.4294 40.5264 42.5388 40.4014 42.6794 40.2979C42.82 40.1924 42.986 40.1113 43.1774 40.0547C43.3708 39.998 43.5827 39.9697 43.8132 39.9697C44.1276 39.9697 44.402 40.0264 44.6364 40.1396C44.8708 40.2529 45.0524 40.4082 45.1813 40.6055C45.3122 40.8027 45.3776 41.0283 45.3776 41.2822H44.5046C44.5046 41.1572 44.4782 41.0479 44.4255 40.9541C44.3747 40.8584 44.2966 40.7832 44.1911 40.7285C44.0876 40.6738 43.9567 40.6465 43.7985 40.6465C43.6462 40.6465 43.5192 40.6699 43.4177 40.7168C43.3161 40.7617 43.2399 40.8232 43.1891 40.9014C43.1384 40.9775 43.113 41.0635 43.113 41.1592C43.113 41.2314 43.1306 41.2969 43.1657 41.3555C43.2028 41.4141 43.2575 41.4688 43.3298 41.5195C43.402 41.5703 43.4909 41.6182 43.5964 41.6631C43.7018 41.708 43.8239 41.752 43.9626 41.7949C44.195 41.8652 44.3991 41.9443 44.5749 42.0322C44.7526 42.1201 44.9011 42.2188 45.0202 42.3281C45.1393 42.4375 45.2292 42.5615 45.2897 42.7002C45.3503 42.8389 45.3806 42.9961 45.3806 43.1719C45.3806 43.3574 45.3444 43.5234 45.2722 43.6699C45.1999 43.8164 45.0954 43.9404 44.9587 44.042C44.822 44.1436 44.6589 44.2207 44.4694 44.2734C44.28 44.3262 44.0681 44.3525 43.8337 44.3525C43.6227 44.3525 43.4147 44.3252 43.2097 44.2705C43.0046 44.2139 42.8181 44.1289 42.6501 44.0156C42.4841 43.9023 42.3513 43.7578 42.2516 43.582C42.152 43.4062 42.1022 43.1982 42.1022 42.958H42.9841C42.9841 43.0908 43.0046 43.2031 43.0456 43.2949C43.0866 43.3867 43.1442 43.4609 43.2184 43.5176C43.2946 43.5742 43.3845 43.6152 43.488 43.6406C43.5934 43.666 43.7087 43.6787 43.8337 43.6787C43.986 43.6787 44.111 43.6572 44.2087 43.6143C44.3083 43.5713 44.3815 43.5117 44.4284 43.4355C44.4772 43.3594 44.5016 43.2734 44.5016 43.1777ZM47.8854 40.0283V44.2939H47.0095V40.0283H47.8854ZM49.1979 40.0283V40.7168H45.7175V40.0283H49.1979ZM52.5612 43.6084V44.2939H50.2907V43.6084H52.5612ZM50.5778 40.0283V44.2939H49.6989V40.0283H50.5778ZM52.2653 41.7656V42.4336H50.2907V41.7656H52.2653ZM52.5583 40.0283V40.7168H50.2907V40.0283H52.5583ZM53.0739 40.0283H54.6647C54.9909 40.0283 55.2712 40.0771 55.5056 40.1748C55.7419 40.2725 55.9235 40.417 56.0505 40.6084C56.1774 40.7998 56.2409 41.0352 56.2409 41.3145C56.2409 41.543 56.2018 41.7393 56.1237 41.9033C56.0475 42.0654 55.9391 42.2012 55.7985 42.3105C55.6599 42.418 55.4968 42.5039 55.3093 42.5684L55.0309 42.7148H53.6481L53.6423 42.0293H54.6706C54.8249 42.0293 54.9528 42.002 55.0544 41.9473C55.1559 41.8926 55.2321 41.8164 55.2829 41.7188C55.3356 41.6211 55.362 41.5078 55.362 41.3789C55.362 41.2422 55.3366 41.124 55.2858 41.0244C55.235 40.9248 55.1579 40.8486 55.0544 40.7959C54.9509 40.7432 54.821 40.7168 54.6647 40.7168H53.9528V44.2939H53.0739V40.0283ZM55.4587 44.2939L54.486 42.3926L55.4147 42.3867L56.3991 44.2529V44.2939H55.4587ZM60.0729 42.7734H58.986V42.0879H60.0729C60.2409 42.0879 60.3776 42.0605 60.4831 42.0059C60.5886 41.9492 60.6657 41.8711 60.7145 41.7715C60.7634 41.6719 60.7878 41.5596 60.7878 41.4346C60.7878 41.3076 60.7634 41.1895 60.7145 41.0801C60.6657 40.9707 60.5886 40.8828 60.4831 40.8164C60.3776 40.75 60.2409 40.7168 60.0729 40.7168H59.2907V44.2939H58.4118V40.0283H60.0729C60.4069 40.0283 60.6931 40.0889 60.9313 40.21C61.1716 40.3291 61.3552 40.4941 61.4821 40.7051C61.6091 40.916 61.6725 41.1572 61.6725 41.4287C61.6725 41.7041 61.6091 41.9424 61.4821 42.1436C61.3552 42.3447 61.1716 42.5 60.9313 42.6094C60.6931 42.7188 60.4069 42.7734 60.0729 42.7734ZM65.1413 43.6084V44.2939H62.8708V43.6084H65.1413ZM63.1579 40.0283V44.2939H62.279V40.0283H63.1579ZM64.8454 41.7656V42.4336H62.8708V41.7656H64.8454ZM65.1384 40.0283V40.7168H62.8708V40.0283H65.1384ZM67.6198 40.0283V44.2939H66.7438V40.0283H67.6198ZM68.9323 40.0283V40.7168H65.4518V40.0283H68.9323ZM72.2956 43.6084V44.2939H70.0251V43.6084H72.2956ZM70.3122 40.0283V44.2939H69.4333V40.0283H70.3122ZM71.9997 41.7656V42.4336H70.0251V41.7656H71.9997ZM72.2927 40.0283V40.7168H70.0251V40.0283H72.2927ZM72.8083 40.0283H74.3991C74.7253 40.0283 75.0056 40.0771 75.2399 40.1748C75.4763 40.2725 75.6579 40.417 75.7849 40.6084C75.9118 40.7998 75.9753 41.0352 75.9753 41.3145C75.9753 41.543 75.9362 41.7393 75.8581 41.9033C75.7819 42.0654 75.6735 42.2012 75.5329 42.3105C75.3942 42.418 75.2311 42.5039 75.0436 42.5684L74.7653 42.7148H73.3825L73.3766 42.0293H74.405C74.5593 42.0293 74.6872 42.002 74.7888 41.9473C74.8903 41.8926 74.9665 41.8164 75.0173 41.7188C75.07 41.6211 75.0964 41.5078 75.0964 41.3789C75.0964 41.2422 75.071 41.124 75.0202 41.0244C74.9694 40.9248 74.8923 40.8486 74.7888 40.7959C74.6852 40.7432 74.5554 40.7168 74.3991 40.7168H73.6872V44.2939H72.8083V40.0283ZM75.1931 44.2939L74.2204 42.3926L75.1491 42.3867L76.1335 44.2529V44.2939H75.1931ZM78.8727 43.1777C78.8727 43.1016 78.861 43.0332 78.8376 42.9727C78.8161 42.9102 78.7751 42.8535 78.7145 42.8027C78.654 42.75 78.569 42.6982 78.4597 42.6475C78.3503 42.5967 78.2087 42.5439 78.0349 42.4893C77.8415 42.4268 77.6579 42.3564 77.4841 42.2783C77.3122 42.2002 77.1599 42.1094 77.027 42.0059C76.8962 41.9004 76.7927 41.7783 76.7165 41.6396C76.6423 41.501 76.6052 41.3398 76.6052 41.1562C76.6052 40.9785 76.6442 40.8174 76.7224 40.6729C76.8005 40.5264 76.9099 40.4014 77.0505 40.2979C77.1911 40.1924 77.3571 40.1113 77.5485 40.0547C77.7419 39.998 77.9538 39.9697 78.1843 39.9697C78.4987 39.9697 78.7731 40.0264 79.0075 40.1396C79.2419 40.2529 79.4235 40.4082 79.5524 40.6055C79.6833 40.8027 79.7487 41.0283 79.7487 41.2822H78.8757C78.8757 41.1572 78.8493 41.0479 78.7966 40.9541C78.7458 40.8584 78.6677 40.7832 78.5622 40.7285C78.4587 40.6738 78.3278 40.6465 78.1696 40.6465C78.0173 40.6465 77.8903 40.6699 77.7888 40.7168C77.6872 40.7617 77.611 40.8232 77.5602 40.9014C77.5095 40.9775 77.4841 41.0635 77.4841 41.1592C77.4841 41.2314 77.5016 41.2969 77.5368 41.3555C77.5739 41.4141 77.6286 41.4688 77.7009 41.5195C77.7731 41.5703 77.862 41.6182 77.9675 41.6631C78.0729 41.708 78.195 41.752 78.3337 41.7949C78.5661 41.8652 78.7702 41.9443 78.946 42.0322C79.1237 42.1201 79.2722 42.2188 79.3913 42.3281C79.5104 42.4375 79.6003 42.5615 79.6608 42.7002C79.7214 42.8389 79.7516 42.9961 79.7516 43.1719C79.7516 43.3574 79.7155 43.5234 79.6432 43.6699C79.571 43.8164 79.4665 43.9404 79.3298 44.042C79.1931 44.1436 79.03 44.2207 78.8405 44.2734C78.6511 44.3262 78.4391 44.3525 78.2048 44.3525C77.9938 44.3525 77.7858 44.3252 77.5807 44.2705C77.3757 44.2139 77.1891 44.1289 77.0212 44.0156C76.8552 43.9023 76.7224 43.7578 76.6227 43.582C76.5231 43.4062 76.4733 43.1982 76.4733 42.958H77.3552C77.3552 43.0908 77.3757 43.2031 77.4167 43.2949C77.4577 43.3867 77.5153 43.4609 77.5895 43.5176C77.6657 43.5742 77.7556 43.6152 77.8591 43.6406C77.9645 43.666 78.0798 43.6787 78.2048 43.6787C78.3571 43.6787 78.4821 43.6572 78.5798 43.6143C78.6794 43.5713 78.7526 43.5117 78.7995 43.4355C78.8483 43.3594 78.8727 43.2734 78.8727 43.1777Z"
                fill="#none" />
        </symbol>
        <symbol id="cliente5">
            <g clip-path="url(#clip0_75273_733)">
                <path
                    d="M26.7569 44.8221C27.0006 45.0983 27.1304 45.4441 27.1236 45.7991C27.136 46.0307 27.0914 46.2618 26.993 46.4754C26.8947 46.689 26.7451 46.8797 26.5554 47.0332C26.082 47.3605 25.4956 47.5205 24.9037 47.4838H22V41.2924H24.8442C25.4057 41.2582 25.9626 41.4036 26.42 41.7037C26.6036 41.8445 26.7491 42.0224 26.8448 42.2235C26.9406 42.4245 26.984 42.6431 26.9716 42.8622C26.9883 43.2037 26.8712 43.5395 26.6413 43.8089C26.4206 44.0549 26.1156 44.2254 25.7758 44.2928C26.161 44.3572 26.5087 44.5448 26.7569 44.8221ZM23.3511 43.8875H24.5667C24.843 43.9062 25.1174 43.8332 25.3397 43.6819C25.431 43.6061 25.502 43.5122 25.5473 43.4073C25.5925 43.3024 25.6108 43.1893 25.6007 43.0769C25.6093 42.9649 25.5906 42.8526 25.5461 42.748C25.5015 42.6434 25.4322 42.5491 25.343 42.472C25.1141 42.3164 24.8312 42.2422 24.5469 42.2633H23.3511V43.8875ZM25.4587 46.2619C25.5562 46.1843 25.6329 46.0872 25.6828 45.9781C25.7326 45.869 25.7543 45.7508 25.7461 45.6328C25.7535 45.5133 25.7309 45.3939 25.6799 45.2838C25.6289 45.1737 25.551 45.0757 25.4521 44.9976C25.2142 44.8361 24.9217 44.7569 24.6262 44.7738H23.3511V46.4766H24.6427C24.9334 46.492 25.2212 46.4163 25.4587 46.2619Z"
                    fill="#none" />
                <path
                    d="M32.5709 47.4839L30.9886 45.0641H30.394V47.4839H29.033V41.2924H31.6096C32.2591 41.2509 32.9012 41.4393 33.4034 41.8187C33.7635 42.1547 33.9808 42.5975 34.0159 43.0672C34.051 43.537 33.9018 44.0027 33.595 44.3806C33.2771 44.714 32.8428 44.9364 32.3661 45.0097L34.0508 47.4839H32.5709ZM30.394 44.2203H31.5072C32.2802 44.2203 32.6667 43.9077 32.6667 43.2826C32.6746 43.155 32.6534 43.0272 32.6045 42.9074C32.5556 42.7877 32.48 42.6785 32.3826 42.5869C32.1383 42.4009 31.8237 42.3107 31.5072 42.3359H30.3807L30.394 44.2203Z"
                    fill="#none" />
                <path
                    d="M40.0102 46.2376H37.2981L36.8191 47.4837H35.392L37.8828 41.3618H39.4255L41.9063 47.4837H40.4793L40.0102 46.2376ZM39.6468 45.2999L38.6558 42.6866L37.6648 45.2999H39.6468Z"
                    fill="#none" />
                <path
                    d="M49.3224 47.4838H47.9713L44.9421 43.2735V47.4838H43.5943V41.2924H44.9421L47.9713 45.5269V41.2924H49.3224V47.4838Z"
                    fill="#none" />
                <path
                    d="M57.0326 46.0018C56.7532 46.4692 56.3276 46.8495 55.8103 47.0937C55.2222 47.3657 54.5695 47.4998 53.9109 47.4839H51.506V41.2924H53.9109C54.5684 41.2767 55.2202 41.4075 55.8103 41.6735C56.3275 41.9122 56.7536 42.2886 57.0326 42.7533C57.3107 43.2569 57.4556 43.8133 57.4556 44.3776C57.4556 44.9418 57.3107 45.4982 57.0326 46.0018ZM55.4866 45.8536C55.8722 45.4423 56.0842 44.9181 56.0842 44.376C56.0842 43.834 55.8722 43.3098 55.4866 42.8985C55.0205 42.5259 54.4127 42.3368 53.7952 42.3722H52.8571V46.3799H53.7952C54.4127 46.4153 55.0205 46.2261 55.4866 45.8536Z"
                    fill="#none" />
                <path
                    d="M40.8558 6.85364C40.8558 6.85364 58.2945 12.8818 57.9245 21.6049V36.3591C57.9245 36.3591 40.4991 30.328 40.8624 21.6049L40.8558 6.85364Z"
                    fill="#none" />
                <path
                    d="M73.4603 32.9049C76.7538 30.8296 80.5633 29.5442 84.5399 29.1664V24.5478C79.9579 26.1648 76.0709 29.0967 73.4603 32.9049Z"
                    fill="#none" />
                <path
                    d="M71.4816 34.2964C74.1773 29.3265 78.8505 25.4914 84.54 23.58V10.2715C84.54 10.2715 59.705 18.8585 60.2303 31.2808V52.287C60.2303 52.287 61.3369 51.9029 63.0778 51.183C63.0778 50.5115 63.0778 49.834 63.1571 49.1535C63.6711 43.3865 66.6654 38.0424 71.4816 34.2964Z"
                    fill="#none" />
                <path
                    d="M69.1197 42.1C69.2502 40.6432 69.5413 39.2021 69.9885 37.799C66.9896 41.034 65.1734 45.0484 64.7956 49.2775C64.7592 49.6768 64.7394 50.076 64.7295 50.4874C66.14 49.8673 67.7818 49.093 69.5062 48.1826C69.0662 46.1817 68.936 44.1341 69.1197 42.1Z"
                    fill="#none" />
                <path
                    d="M70.1075 42.1756C69.9421 44.0159 70.0454 45.8682 70.4147 47.6835C77.1999 43.9662 84.8241 38.2224 84.5301 31.2808V30.6759C79.6824 31.1726 75.1468 33.1129 71.6204 36.1989C70.7948 38.1113 70.2849 40.1257 70.1075 42.1756Z"
                    fill="#none" />
            </g>
            <defs>
                <clipPath id="clip0_75273_733">
                    <rect width="106" height="52.8261" fill="white"
                        transform="translate(0 0.0869751)" />
                </clipPath>
            </defs>
        </symbol>
        <symbol id="cliente6">
            <path
                d="M53.425 27.4952C52.9819 26.9054 52.7699 26.2083 52.8203 25.5066V22.6234C52.8203 21.7396 53.0207 21.0679 53.4216 20.6084C53.8224 20.1489 54.511 19.9201 55.4871 19.9221C56.4044 19.9221 57.0555 20.1176 57.4405 20.5087C57.8605 21.0077 58.0648 21.6178 58.018 22.2333V22.9108H56.3772V22.2245C56.383 21.9999 56.3671 21.7752 56.3296 21.5528C56.306 21.4008 56.2234 21.2602 56.0952 21.154C55.9267 21.0394 55.7145 20.9839 55.5007 20.9985C55.2759 20.984 55.0529 21.0426 54.8756 21.1628C54.7327 21.2804 54.6374 21.4347 54.6038 21.6027C54.5567 21.838 54.5351 22.0766 54.5393 22.3154V25.8146C54.5134 26.1521 54.5858 26.4899 54.7499 26.7971C54.8315 26.9011 54.9448 26.9835 55.0774 27.0353C55.2099 27.087 55.3564 27.1061 55.5007 27.0904C55.7109 27.1054 55.9195 27.0485 56.0816 26.9321C56.2153 26.8175 56.3013 26.668 56.3262 26.5068C56.3645 26.2746 56.3816 26.0402 56.3772 25.8058V25.096H58.018V25.7442C58.0641 26.3857 57.8648 27.0226 57.4507 27.5568C57.0736 27.985 56.4315 28.1991 55.4871 28.1991C54.5427 28.1991 53.8292 27.9704 53.425 27.4952Z"
                fill="#none" />
            <path
                d="M60.2569 27.5245C59.8424 27.0758 59.6352 26.4217 59.6352 25.5565V22.5237C59.6352 21.6672 59.8424 21.019 60.2569 20.5791C60.6713 20.1391 61.3644 19.9201 62.3359 19.9221C63.3007 19.9221 63.9904 20.1411 64.4048 20.5791C64.8193 21.019 65.0299 21.6672 65.0299 22.5237V25.5565C65.0299 26.4129 64.8193 27.0699 64.398 27.5216C63.9768 27.9733 63.2906 28.1991 62.3359 28.1991C61.3813 28.1991 60.6747 27.9704 60.2569 27.5245ZM63.1003 26.7971C63.2487 26.516 63.3163 26.2081 63.2974 25.8996V22.1864C63.3164 21.8839 63.2499 21.5819 63.1037 21.3065C63.0205 21.2003 62.9043 21.1166 62.7686 21.0647C62.6328 21.0128 62.4829 20.995 62.3359 21.0132C62.1885 20.9954 62.0383 21.0135 61.9021 21.0653C61.7659 21.1171 61.6491 21.2006 61.5648 21.3065C61.4154 21.5811 61.3477 21.8835 61.3678 22.1864V25.9172C61.3471 26.2258 61.4148 26.5341 61.5648 26.8147C61.6604 26.9094 61.7785 26.9852 61.9109 27.0371C62.0433 27.0891 62.1871 27.116 62.3326 27.116C62.478 27.116 62.6218 27.0891 62.7542 27.0371C62.8866 26.9852 63.0047 26.9094 63.1003 26.8147V26.7971Z"
                fill="#none" />
            <path
                d="M67.0035 20.0106H68.7701L70.0984 25.6062L71.4573 20.0106H73.1763L73.3496 28.0873H72.079L71.9431 22.474L70.6318 28.0873H69.6126L68.2537 22.4535L68.128 28.0873H66.8439L67.0035 20.0106Z"
                fill="#none" />
            <path
                d="M75.3302 20.0106H78.0819C79.6673 20.0106 80.4599 20.775 80.4599 22.3039C80.4599 23.7684 79.6254 24.4996 77.9562 24.4976H77.0186V28.0873H75.32L75.3302 20.0106ZM77.6811 23.4624C77.8489 23.4808 78.0193 23.4675 78.1806 23.4234C78.3419 23.3794 78.4902 23.3056 78.6153 23.2072C78.8101 22.9344 78.896 22.6141 78.8599 22.2952C78.8688 22.0488 78.8414 21.8024 78.7783 21.562C78.7541 21.4817 78.7116 21.4063 78.6533 21.3404C78.5949 21.2744 78.522 21.2191 78.4386 21.1778C78.2028 21.0801 77.9422 21.0357 77.6811 21.0487H77.022V23.4624H77.6811Z"
                fill="#none" />
            <path
                d="M82.9094 20.0106H84.7337L86.6055 28.0873H85.0225L84.6522 26.225H83.0249L82.6444 28.0873H81.0376L82.9094 20.0106ZM84.4687 25.2895L83.8334 21.8992L83.1982 25.2895H84.4687Z"
                fill="#none" />
            <path
                d="M88.1173 20.0106H89.3063L91.5825 24.6179V20.0106H92.9923V28.0873H91.861L89.5713 23.2776V28.0873H88.1139L88.1173 20.0106Z"
                fill="#none" />
            <path
                d="M96.2945 25.0077L94.4022 20.0219H95.9955L97.1506 23.2245L98.2343 20.0219H99.7936L97.9251 25.0077V28.0872H96.2945V25.0077Z"
                fill="#none" />
            <path
                d="M56.0477 31.6185V32.0409H54.6617V35.3228H54.0807V32.0409H52.6879V31.6185H56.0477Z"
                fill="#none" />
            <path
                d="M60.3927 35.3231H59.9442C59.8987 35.3256 59.8538 35.313 59.8185 35.2879C59.7846 35.2664 59.7587 35.2369 59.7438 35.2029L59.3429 34.323H57.4201L57.0192 35.2029C57.0078 35.2397 56.9869 35.2738 56.958 35.3026C56.9225 35.3271 56.8778 35.3397 56.8324 35.3378H56.3839L58.0825 31.6337H58.6737L60.3927 35.3231ZM57.5797 33.9476H59.1833L58.5038 32.4402C58.4537 32.3262 58.4117 32.2096 58.3781 32.0912C58.3543 32.1616 58.3339 32.229 58.3136 32.2877L58.2524 32.4431L57.5797 33.9476Z"
                fill="#none" />
            <path
                d="M63.3211 34.9593C63.4275 34.9641 63.5341 34.9641 63.6404 34.9593C63.7323 34.9511 63.8232 34.9364 63.9122 34.9153C63.9954 34.8977 64.0772 34.8751 64.1568 34.8478C64.2316 34.8214 64.3063 34.7891 64.3844 34.7569V33.9239H63.705C63.6882 33.9247 63.6714 33.9225 63.6556 33.9174C63.6398 33.9124 63.6254 33.9046 63.6133 33.8945C63.6021 33.8862 63.5933 33.8758 63.5874 33.8641C63.5815 33.8524 63.5787 33.8398 63.5793 33.8271V33.5425H64.8974V34.9622C64.7898 35.0287 64.6762 35.0875 64.5577 35.1382C64.4366 35.1898 64.3104 35.232 64.1806 35.2643C64.0417 35.2996 63.8996 35.3251 63.7559 35.3406C63.5912 35.3564 63.4257 35.3642 63.26 35.3641C62.967 35.3662 62.6763 35.3194 62.4038 35.2262C62.1495 35.1379 61.9184 35.0062 61.7244 34.839C61.5353 34.6701 61.3864 34.4708 61.2862 34.2524C61.1791 34.0068 61.1261 33.7462 61.1299 33.4839C61.1263 33.2199 61.1781 32.9576 61.2828 32.7095C61.3805 32.49 61.5297 32.2903 61.721 32.1229C61.9149 31.9562 62.1461 31.8255 62.4005 31.7386C62.6914 31.6441 63.0001 31.5974 63.3109 31.6008C63.4691 31.6006 63.627 31.6114 63.7831 31.633C63.9212 31.6524 64.0567 31.6839 64.1874 31.7269C64.3062 31.7654 64.4201 31.8146 64.5271 31.8735C64.6312 31.9314 64.7301 31.9962 64.8227 32.0671L64.6596 32.2959C64.6468 32.3168 64.6278 32.3344 64.6045 32.3468C64.5812 32.3591 64.5545 32.3659 64.5271 32.3663C64.4895 32.3653 64.453 32.3551 64.4218 32.337C64.3708 32.3135 64.3165 32.2842 64.2553 32.249C64.1831 32.2099 64.1069 32.1765 64.0277 32.1493C63.9265 32.1142 63.8219 32.0867 63.7152 32.0671C63.5729 32.0445 63.4284 32.0337 63.2837 32.0349C63.0596 32.0327 62.8371 32.0676 62.6281 32.1375C62.439 32.203 62.2686 32.3031 62.1287 32.4309C61.9879 32.564 61.8803 32.7208 61.8127 32.8914C61.661 33.2926 61.661 33.725 61.8127 34.1262C61.8871 34.3005 62.0028 34.4593 62.1525 34.5926C62.2918 34.7197 62.4609 34.8197 62.6485 34.8859C62.8645 34.95 63.0934 34.9749 63.3211 34.9593Z"
                fill="#none" />
            <path d="M68.7362 34.9005H70.5911V35.3228H68.1689V31.6185H68.7498L68.7362 34.9005Z"
                fill="#none" />
            <path d="M72.5208 35.3228H71.9398V31.6185H72.5208V35.3228Z" fill="#AFB1B8" />
            <path
                d="M74.6814 31.6361C74.7159 31.6531 74.746 31.6761 74.7697 31.7036L77.253 34.4959C77.2497 34.452 77.2497 34.4079 77.253 34.3639C77.253 34.3229 77.253 34.2818 77.253 34.2437V31.6039H77.7592V35.3231H77.4671C77.4238 35.3261 77.3804 35.319 77.3414 35.3025C77.3061 35.2841 77.275 35.2602 77.2496 35.2321L74.7697 32.4428C74.7697 32.4867 74.7697 32.5278 74.7697 32.5689C74.7697 32.6099 74.7697 32.6481 74.7697 32.6833V35.3231H74.2839V31.6185H74.5863C74.6191 31.6186 74.6515 31.6246 74.6814 31.6361Z"
                fill="#none" />
            <path
                d="M82.0364 31.6185V32.0262H79.9777V33.2493H81.6457V33.6423H79.9777V34.9064H82.0364V35.3141H79.3798V31.6185H82.0364Z"
                fill="#none" />
            <path
                d="M21.1617 8.74242L46.9568 15.0657V37.2237L21.1617 30.9033V8.74242ZM19.5073 6.85364V31.9797L48.6079 39.1154V13.9923L19.5073 6.85364Z"
                fill="#none" />
            <path d="M35.1039 50.7791L6 43.6375V18.514L35.1039 25.6528V50.7791Z" fill="#none" />
            <path
                d="M19.9897 8.4579L45.4484 14.7019L34.6215 24.0518L9.1594 17.8049L19.9897 8.4579ZM19.5073 6.85364L6 18.5146L35.1039 25.6531L48.6078 13.9922L19.5073 6.85364Z"
                fill="#none" />
            <path d="M36.7414 49.3657L48.6078 39.1185L36.7414 36.2062V49.3657Z" fill="#none" />

        </symbol>

        <symbol id="enviar">
         <path
                d="M24 0L0 13.5L7.66994 16.3407L19.5 5.25002L10.5017 17.3896L10.509 17.3923L10.5 17.3896V24.0001L14.8013 18.982L20.2501 21.0001L24 0Z"
                fill="white" />
        </symbol>

        <symbol id="persona">
            <path
                d="M6 6C7.6575 6 9 4.6575 9 3C9 1.3425 7.6575 0 6 0C4.3425 0 3 1.3425 3 3C3 4.6575 4.3425 6 6 6ZM6 7.5C3.9975 7.5 0 8.505 0 10.5V11.25C0 11.6625 0.3375 12 0.75 12H11.25C11.6625 12 12 11.6625 12 11.25V10.5C12 8.505 8.0025 7.5 6 7.5Z"
                fill="#none" />
        </symbol>

        <symbol id="telefono2">
            <path
                d="M11.996 9.12256L10.1579 8.91269C9.71641 8.86203 9.2822 9.01401 8.97102 9.32519L7.63945 10.6568C5.59144 9.61466 3.91251 7.94296 2.87041 5.8877L4.20922 4.54888C4.5204 4.2377 4.67237 3.80349 4.62171 3.36205L4.41185 1.53836C4.325 0.807445 3.70988 0.257446 2.97173 0.257446H1.71976C0.902004 0.257446 0.221746 0.937708 0.272403 1.75547C0.655953 7.93572 5.59868 12.8712 11.7717 13.2548C12.5894 13.3054 13.2697 12.6252 13.2697 11.8074V10.5555C13.2769 9.82453 12.7269 9.2094 11.996 9.12256Z"
                fill="#none" />

        </symbol>
        <symbol id="sobre2">
            <path
                d="M14 0H2C1.175 0 0.5075 0.675 0.5075 1.5L0.5 10.5C0.5 11.325 1.175 12 2 12H14C14.825 12 15.5 11.325 15.5 10.5V1.5C15.5 0.675 14.825 0 14 0ZM13.7 3.1875L8.3975 6.5025C8.1575 6.6525 7.8425 6.6525 7.6025 6.5025L2.3 3.1875C2.1125 3.0675 2 2.865 2 2.6475C2 2.145 2.5475 1.845 2.975 2.1075L8 5.25L13.025 2.1075C13.4525 1.845 14 2.145 14 2.6475C14 2.865 13.8875 3.0675 13.7 3.1875Z"
                fill="#none" />

        </symbol>

        <symbol id="check">
            <path
                d="M1.95703 4.75166L1.88825 4.68604L1.81923 4.75141L0.93123 5.59258L0.854858 5.66492L0.930974 5.73753L4.42671 9.07236L4.49574 9.1382L4.56476 9.07236L12.069 1.91352L12.1449 1.84116L12.069 1.76881L11.1873 0.927644L11.1183 0.861826L11.0493 0.927611L4.49577 7.17353L1.95703 4.75166Z"
                fill="black" stroke="white" stroke-width="0.2" />
        </symbol>


        <symbol id="casilla">
        <path
                d="M14.2222 1.66667V13.3333H1.77778V1.66667H14.2222ZM14.2222 0H1.77778C0.8 0 0 0.75 0 1.66667V13.3333C0 14.25 0.8 15 1.77778 15H14.2222C15.2 15 16 14.25 16 13.3333V1.66667C16 0.75 15.2 0 14.2222 0Z"
                fill="#none" />

        </symbol>
        
    </defs>
</svg>